<svg width="2279" height="654" viewBox="0 0 2279 654" fill="none" xmlns="http://www.w3.org/2000/svg">
<g clip-path="url(#clip0_1954_21714)">
<path fill-rule="evenodd" clip-rule="evenodd" d="M780.728 301.574V24.4875H881.762C903.188 24.4875 916.975 29.0788 929.218 33.6701C956.779 47.444 969.01 73.4743 969.01 96.4308C969.01 122.461 958.297 140.826 936.858 154.6C969.01 162.252 987.388 183.691 987.388 217.361C987.388 255.635 964.418 283.182 926.145 295.439C912.371 300.03 897.066 301.561 874.097 301.561L780.728 301.574ZM904.719 71.9438C897.066 68.883 889.414 67.3526 878.688 67.3526H826.641V139.296H875.627C889.401 139.296 898.597 137.765 906.249 133.174C911.417 130.293 915.71 126.069 918.674 120.948C921.637 115.826 923.161 109.999 923.084 104.083C923.084 90.322 915.432 78.0656 904.719 71.9438ZM918.505 186.752C912.384 183.691 903.188 182.161 887.884 182.161H826.653V258.696H883.292C901.658 258.696 910.853 255.635 918.505 252.574C932.279 246.452 938.401 234.196 938.401 218.891C938.401 203.587 932.279 192.887 918.505 186.752ZM1262.93 301.574V24.4875H1310.4V301.574H1262.93ZM1607.37 301.574V24.4875H1654.84V301.574H1607.37ZM1806.39 22.957C1836.99 22.957 1867.62 30.6092 1884.47 38.2743L1882.92 84.2003C1858.42 71.9568 1835.48 64.2917 1806.4 64.2917C1780.36 64.2917 1757.42 71.9438 1757.42 93.3829C1757.42 150.022 1899.78 127.052 1899.78 220.435C1899.78 272.482 1856.92 304.634 1792.63 304.634C1749.76 304.634 1720.66 292.391 1699.23 280.135L1719.14 241.861C1735.99 252.574 1763.55 263.287 1794.15 263.287C1823.22 263.287 1849.27 252.574 1849.27 228.087C1849.27 168.374 1708.43 194.404 1708.43 101.022C1708.42 50.5178 1748.21 22.957 1806.39 22.957ZM2123.27 301.574V182.174H1990.07V301.574H1942.62V24.4875H1990.07V137.778H2123.27V24.4875H2170.71V301.574H2123.27ZM884.823 349.03C913.901 349.03 936.871 355.152 961.357 365.865L947.584 405.669C933.81 399.534 915.432 391.895 889.414 391.895C837.367 391.895 805.214 436.29 805.214 489.869C805.214 544.99 835.836 589.373 889.414 589.373C915.432 589.373 933.81 581.72 947.584 575.599L961.357 615.39C936.858 626.103 913.901 632.238 884.823 632.238C802.154 632.238 754.697 574.068 754.697 491.399C754.697 413.321 802.154 349.03 884.823 349.03ZM1919.68 349.03C1950.28 349.03 1973.26 355.152 1996.2 365.865L1982.43 405.669C1968.65 399.534 1950.28 391.895 1924.27 391.895C1872.21 391.895 1840.07 436.29 1840.07 489.869C1840.07 544.99 1870.69 589.373 1924.27 589.373C1950.29 589.373 1968.65 581.72 1982.43 575.599L1996.2 615.39C1973.25 626.103 1950.28 632.238 1919.68 632.238C1837 632.238 1789.55 574.068 1789.55 491.399C1789.54 413.321 1837 349.03 1919.68 349.03ZM1230.78 489.856C1230.78 572.525 1178.74 632.238 1100.67 632.238C1022.59 632.238 970.54 574.068 970.54 491.399C970.54 408.73 1022.6 349.03 1100.67 349.03C1180.27 349.03 1230.78 407.199 1230.78 489.856ZM1181.79 489.856C1181.79 430.156 1146.6 391.882 1100.67 391.882C1054.74 391.882 1019.54 430.156 1019.54 491.386C1019.54 551.099 1054.75 589.36 1100.67 589.36C1146.6 589.36 1181.79 551.099 1181.79 489.856ZM1262.93 523.538V352.091H1310.4V525.069C1310.4 572.525 1334.9 589.36 1374.69 589.36C1414.48 589.36 1438.98 572.525 1438.98 525.069V352.091H1486.43V523.538C1486.43 598.555 1443.56 632.238 1374.69 632.238C1305.8 632.238 1262.93 598.555 1262.93 523.538ZM1575.22 427.095H1573.7C1575.22 436.278 1575.22 451.595 1575.22 463.838V627.633H1527.77V352.091H1579.83L1706.87 540.386H1708.42C1706.87 531.203 1706.87 515.886 1706.87 503.643V352.091H1754.34V627.633H1712.99L1575.22 427.095ZM2032.96 627.633V352.091H2080.4V627.633H2032.96ZM2123.27 627.633V352.091H2170.71V584.781H2279.41V627.633H2123.27ZM1570.64 26.0309H1347.13V68.883H1435.92V301.574H1483.39V68.883H1570.64V26.0309ZM1178.76 301.574C1138.94 217.374 1128.23 194.417 1111.39 194.417H1067V301.574H1019.54V26.0309H1112.92C1184.87 26.0309 1210.91 62.7743 1210.91 104.096C1210.91 142.37 1191 166.857 1160.38 176.039C1172.63 183.691 1186.42 209.722 1232.35 301.574H1178.76ZM1115.97 67.3526H1066.98V151.552H1114.44C1148.12 151.552 1163.41 134.718 1163.41 108.687C1163.43 85.7307 1149.65 67.3526 1115.97 67.3526Z" fill="#164C82"/>
<path fill-rule="evenodd" clip-rule="evenodd" d="M316.877 157.674C316.877 244.934 244.934 315.347 157.673 315.347C71.9433 315.347 0 244.921 0 157.674C0 70.4259 71.9433 0.000154608 157.673 0.000154608C244.934 0.000154608 316.877 70.413 316.877 157.674ZM653.663 157.674C653.692 178.388 649.634 198.904 641.72 218.047C633.807 237.19 622.194 254.583 607.546 269.23C592.899 283.877 575.506 295.49 556.363 303.404C537.22 311.317 516.704 315.376 495.99 315.347C408.729 315.347 338.316 244.921 338.316 157.674C338.316 70.4259 408.742 0.000154608 495.99 0.000154608C516.704 -0.0288724 537.22 4.02965 556.363 11.9432C575.506 19.8567 592.899 31.4698 607.546 46.1169C622.194 60.764 633.807 78.1573 641.72 97.3002C649.634 116.443 653.692 136.959 653.663 157.674ZM316.877 495.99C316.877 583.25 244.934 653.663 157.673 653.663C71.9433 653.663 0 583.237 0 495.99C0 408.716 71.9433 338.316 157.673 338.316C244.934 338.316 316.877 408.716 316.877 495.99ZM653.663 495.99C653.692 516.704 649.634 537.22 641.72 556.363C633.807 575.506 622.194 592.899 607.546 607.547C592.899 622.194 575.506 633.807 556.363 641.72C537.22 649.634 516.704 653.692 495.99 653.663C475.276 653.692 454.759 649.634 435.616 641.72C416.474 633.807 399.08 622.194 384.433 607.547C369.786 592.899 358.173 575.506 350.259 556.363C342.346 537.22 338.287 516.704 338.316 495.99C338.287 475.276 342.346 454.759 350.259 435.617C358.173 416.474 369.786 399.08 384.433 384.433C399.08 369.786 416.474 358.173 435.616 350.259C454.759 342.346 475.276 338.287 495.99 338.316C516.704 338.286 537.221 342.343 556.365 350.256C575.509 358.169 592.903 369.782 607.55 384.429C622.198 399.077 633.811 416.471 641.724 435.615C649.637 454.758 653.694 475.275 653.663 495.99Z" fill="#00A0E2"/>
</g>
<defs>
<clipPath id="clip0_1954_21714">
<rect width="2279" height="654" fill="white"/>
</clipPath>
</defs>
</svg>
