<svg width="200" height="83" viewBox="0 0 200 83" fill="none" xmlns="http://www.w3.org/2000/svg">
<path d="M166.1 82.6016C168.1 82.6016 169.3 81.6016 170.4 78.9016L175.8 65.5016H173.7L169.5 76.3016L164.8 65.5016H162.7L168.6 78.4016C167.8 80.2016 167.1 80.8016 166 80.8016C165.3 80.8016 164.6 80.7016 164 80.3016L163.4 81.8016C164.2 82.4016 165.1 82.6016 166.1 82.6016ZM158.8 78.7016C159.6 78.7016 160.4 78.5016 161.1 78.1016V76.5016C160.5 76.8016 159.9 77.0016 159.2 76.9016C158.2 77.1016 157.2 76.3016 157 75.3016C157 75.1016 157 74.9016 157 74.8016V67.2016H161.1V65.5016H157V61.6016H155.1V65.5016H153.3V67.2016H155.1V75.0016C155.1 77.7016 156.7 78.7016 158.8 78.7016ZM148.5 78.5016H150.4V65.5016H148.5V78.5016ZM148.4 62.7016H150.6V60.6016H148.4V62.7016ZM140.6 78.7016C143.2 78.7016 145.2 77.3016 145.2 74.8016V74.7016C145.2 72.4016 143.1 71.6016 141 71.0016C139.3 70.5016 137.7 70.0016 137.7 68.8016V68.7016C137.7 67.6016 138.7 66.8016 140.2 66.8016C141.6 66.8016 142.9 67.3016 144 68.0016L144.9 66.6016C143.5 65.7016 141.9 65.2016 140.2 65.2016C137.6 65.2016 135.8 66.7016 135.8 68.9016C135.8 71.3016 138 72.0016 140.1 72.6016C141.8 73.1016 143.3 73.6016 143.3 74.9016C143.3 76.2016 142.2 77.0016 140.6 77.0016C139 76.9016 137.4 76.4016 136.1 75.4016L135.1 76.8016C136.6 78.0016 138.5 78.7016 140.5 78.7016M126.6 78.3016H128.5V73.3016C128.5 69.4016 130.8 67.4016 133.6 67.4016H133.7V65.3016C131.3 65.3016 129.2 66.7016 128.4 68.9016V65.5016H126.5L126.6 78.3016ZM113.4 71.1016C113.7 68.6016 115.4 66.7016 117.6 66.7016C120.2 66.7016 121.5 68.7016 121.7 71.1016H113.4ZM113.4 72.6016H123.7C123.7 72.4016 123.7 72.1016 123.7 71.9016C123.7 68.1016 121.5 65.0016 117.6 65.0016C114 65.0016 111.4 68.0016 111.4 71.8016C111.2 75.4016 114 78.4016 117.5 78.6016C117.6 78.6016 117.7 78.6016 117.8 78.6016C119.9 78.7016 121.8 77.8016 123.2 76.2016L122.1 75.3016C121.1 76.5016 119.6 77.1016 118 77.1016C115.6 77.1016 113.6 75.2016 113.4 72.8016M103.2 78.6016H104.9L110.5 65.5016H108.4L104 76.3016L99.5998 65.5016H97.4998L103.2 78.6016ZM92.8998 78.5016H94.7998V65.5016H92.8998V78.5016ZM92.7998 62.7016H94.9998V60.6016H92.7998V62.7016ZM77.7998 78.5016H79.6998V71.1016C79.5998 69.0016 81.1998 67.2016 83.2998 67.0016C83.3998 67.0016 83.4998 67.0016 83.5998 67.0016C85.8998 67.0016 87.1998 68.5016 87.1998 70.9016V78.5016H89.0998V70.5016C89.0998 67.4016 87.2998 65.3016 84.0998 65.3016C82.2998 65.3016 80.5998 66.2016 79.6998 67.8016V65.4016H77.7998V78.5016ZM66.5998 78.8016C70.9998 78.8016 73.8998 76.1016 73.8998 71.0016V60.9016H71.9998V71.1016C71.9998 74.9016 69.8998 76.9016 66.6998 76.9016C63.4998 76.9016 61.2998 74.8016 61.2998 71.0016V60.9016H59.2998V71.1016C59.2998 76.1016 62.2998 78.8016 66.5998 78.8016Z" fill="#002337"/>
<path d="M176.4 53.4V51.8H176.3C175.6 51.8 174.8 51.7 174.1 51.4C173.5 51.1 173.2 50.4 173.2 49.3V41.3C173.2 40.3 173.3 39.3 173.6 38.3C173.8 37.4 174.3 36.6 175 36C175.7 35.4 176.7 35.1 177.6 35.1C178.8 35 180 35.5 180.7 36.5C181.4 37.7 181.7 39 181.6 40.3V53.4H188.2V51.8H188.1C187.4 51.8 186.6 51.6 186 51.3C185.4 51 185.2 50.2 185.2 49V40.7C185.2 39.7 185.3 38.8 185.6 37.9C185.8 37.1 186.3 36.4 186.9 35.8C187.6 35.2 188.5 35 189.4 35C190.6 34.9 191.8 35.4 192.5 36.4C193.2 37.6 193.5 38.9 193.4 40.2V53.3H200V51.7H199.9C199.2 51.7 198.4 51.6 197.8 51.2C197.2 50.9 197 50.1 197 48.9V39.9C197 37.3 196.4 35.4 195.4 34.2C194.2 33 192.6 32.3 190.9 32.4C189.8 32.4 188.6 32.6 187.6 33.1C186.4 33.7 185.5 34.7 184.9 35.9H184.6C184.2 34.8 183.4 33.8 182.4 33.2C181.4 32.7 180.2 32.4 179.1 32.4C178 32.4 176.9 32.6 175.9 33.1C174.8 33.7 173.9 34.7 173.3 35.9H173.1L172.6 32.8H166.6V34.4H166.7C167.4 34.4 168.1 34.5 168.8 34.9C169.4 35.2 169.6 35.9 169.6 37V48.9C169.6 50.1 169.3 50.8 168.8 51.2C168.1 51.5 167.4 51.7 166.7 51.7H166.2V53.3L176.4 53.4ZM150.1 47.9C150 46.6 150.5 45.4 151.3 44.5C152.1 43.7 153.6 43.3 155.8 43.2L158.2 43.1V46.2C158.3 47.6 157.8 49 156.8 50.1C155.8 51.1 154.5 51.6 153.1 51.5C151.1 51.4 150.1 50.3 150.1 47.9ZM154.9 53.3C155.6 53 156.2 52.6 156.7 52C157.2 51.4 157.8 50.8 158.3 50.1H158.6L159.2 53.4H164.3V51.8H164.2C163.5 51.9 162.9 51.7 162.4 51.2C162 50.6 161.8 49.8 161.9 49V39.2C161.9 36.8 161.3 35.1 160.2 34.1C158.7 33 156.8 32.5 155 32.6C153.8 32.6 152.7 32.7 151.6 33C150.7 33.2 149.8 33.6 149.1 34.2C148.5 34.7 148.1 35.5 148.2 36.3C148.1 37 148.4 37.7 149 38.1C149.7 38.5 150.6 38.7 151.4 38.7C151.4 38 151.5 37.3 151.6 36.6C151.7 36 152.1 35.5 152.6 35.1C153.3 34.7 154 34.5 154.8 34.6C155.6 34.5 156.4 34.8 157.1 35.2C157.6 35.6 158 36.2 158.1 36.9C158.3 37.7 158.3 38.5 158.3 39.3V41.6L155.2 41.7C152.3 41.8 150.1 42.3 148.7 43.3C147.2 44.3 146.4 46 146.6 47.8C146.5 49.5 147.1 51.2 148.3 52.4C150 53.8 152.6 54.2 154.9 53.3ZM132.8 53.4V51.8H132.7C132 51.8 131.2 51.7 130.5 51.4C129.9 51.1 129.6 50.4 129.6 49.3V41.3C129.5 39.7 129.9 38.2 130.7 36.8C131.5 35.7 132.8 35 134.2 35.1C135.4 35 136.7 35.5 137.4 36.5C138.1 37.7 138.4 39 138.3 40.3V53.4H144.9V51.8H144.8C144.1 51.8 143.3 51.7 142.7 51.3C142.1 51 141.9 50.2 141.9 49V40C141.9 37.4 141.3 35.5 140.2 34.3C138.8 33 137 32.4 135.2 32.5C132.8 32.4 130.6 33.8 129.6 36H129.4C129.4 35.3 129.5 34.7 129.5 34.2C129.5 33.7 129.5 33.2 129.5 32.8V24.5H122.5V26.1H122.8C123.6 26.1 124.3 26.2 125 26.6C125.6 26.9 125.9 27.6 125.9 28.7V49.1C125.9 50.3 125.6 51 125 51.4C124.3 51.7 123.6 51.9 122.8 51.9H122.5V53.5L132.8 53.4ZM117 53.4V51.8H115.9C115.2 51.8 114.4 51.7 113.7 51.4C113.1 51.1 112.8 50.4 112.8 49.3V43.3C112.8 42.5 112.9 41.6 113 40.8C113.1 39.9 113.3 39 113.6 38.1C113.8 37.3 114.2 36.6 114.7 36C115.1 35.5 115.8 35.2 116.5 35.2C117.1 35.1 117.7 35.4 118.1 35.9C118.5 36.6 118.6 37.4 118.6 38.2C119.6 38.3 120.5 38 121.3 37.4C121.8 36.9 122.1 36.2 122.1 35.5C122.1 34.7 121.7 34 121.1 33.5C120.2 33 119.1 32.7 118 32.8C117.1 32.8 116.2 32.9 115.4 33.4C114.8 33.8 114.3 34.3 113.9 34.9C113.5 35.6 113.1 36.3 112.8 37H112.6L111.9 33.2H106V34.8H106.1C106.9 34.8 107.6 34.9 108.3 35.3C108.9 35.6 109.2 36.3 109.2 37.4V49.3C109.2 50.5 108.9 51.2 108.3 51.6C107.6 51.9 106.9 52.1 106.1 52.1H106V53.7L117 53.4ZM95.2 53.1C96.4 52.5 97.4 51.5 97.9 50.3H98.1L98.6 53.4H104.6V51.8H104.5C103.8 51.8 103 51.7 102.3 51.4C101.7 51.1 101.4 50.4 101.4 49.3V33.1H94.6V34.7H94.7C95.5 34.7 96.2 34.8 96.9 35.2C97.5 35.5 97.8 36.3 97.8 37.5V45.3C97.9 46.9 97.5 48.4 96.7 49.8C95.9 51 94.5 51.6 93 51.5C91.8 51.6 90.6 51.1 89.8 50.1C89.2 48.9 88.9 47.6 89 46.3V33.1H82.2V34.7H82.3C83.1 34.7 83.8 34.8 84.5 35.2C85.1 35.5 85.4 36.2 85.4 37.3V46.4C85.4 49 85.9 50.9 87 52.1C88.2 53.3 89.9 54 91.6 53.9C92.9 53.8 94.1 53.6 95.2 53.1ZM63.4 28.2H66.7C69.3 28 71.8 29.1 73.4 31.2C74.9 33.2 75.7 36.1 75.7 39.8C75.7 43.5 74.9 46.4 73.4 48.5C71.8 50.6 69.2 51.7 66.6 51.5H63.3V28.2H63.4ZM67.6 53.4C70 53.5 72.4 52.9 74.5 51.7C76.3 50.6 77.8 48.9 78.6 47C79.6 44.7 80.1 42.3 80 39.8C80 35.5 78.9 32.2 76.7 29.8C74.5 27.4 71.5 26.3 67.6 26.3H56V27.9H56.5C57.3 27.9 58 28 58.7 28.4C59.3 28.7 59.6 29.4 59.6 30.5V49.1C59.6 50.3 59.3 51 58.7 51.4C58 51.7 57.3 51.9 56.5 51.9H56V53.5L67.6 53.4Z" fill="#002337"/>
<path d="M29.6996 24.7C37.0996 24.7 44.4996 24.2 51.7996 23.4C52.1996 17.2 51.8996 11 50.8996 4.8C50.6996 3.3 49.4996 2.1 47.9996 1.8C41.7996 0.599999 35.5996 0 29.1996 0C28.3996 6.7 28.0996 13.4 28.0996 20V23.1L28.8996 23.2C29.2996 23.3 29.5996 23.5 29.5996 23.9L29.6996 24.7Z" fill="#702567"/>
<path d="M24.0004 30.5017L23.2004 30.4017C22.8004 30.4017 22.6004 30.1017 22.5004 29.7017C22.5004 29.4017 22.4004 28.9017 22.4004 28.9017C15.2004 28.8017 8.00039 29.2017 0.900391 30.1017C2.10039 36.9017 9.90039 52.2017 22.3004 58.8017C23.0004 53.7017 24.0004 41.3017 24.0004 33.4017V30.5017Z" fill="#702567"/>
<path d="M29.6 28.9017C36.8 28.8017 44 29.2017 51.1 30.1017C49.9 36.9017 42.2 52.2017 29.7 58.8017C29.1 53.7017 28 41.4017 28 33.4017V30.5017L28.7 30.4017C29.1 30.3017 29.3 30.1017 29.4 29.7017C29.5 29.4017 29.6 28.9017 29.6 28.9017Z" fill="#702567"/>
<path d="M12.5 14.6C12.5 14.7 12.5 14.7 12.5 14.8C12.6 14.8 12.7 14.8 12.7 14.7C12.8 14.6 12.8 14.6 12.9 14.5C12.8 14.6 12.6 14.6 12.5 14.6Z" fill="#702567"/>
<path d="M14.7996 17.7016C14.9996 17.6016 15.1996 17.7016 15.1996 17.9016C15.1996 18.1016 14.8996 18.2016 14.7996 18.3016L14.6996 18.4016C14.6996 18.3016 14.6996 18.2016 14.6996 18.1016C14.6996 18.0016 14.6996 18.0016 14.5996 18.0016C14.4996 18.0016 13.9996 18.4016 14.2996 19.1016C14.2996 18.9016 14.2996 18.8016 14.3996 18.7016C14.3996 18.6016 14.4996 18.6016 14.4996 18.5016C14.5996 18.6016 14.5996 18.7016 14.5996 18.9016C14.5996 19.2016 14.3996 19.2016 14.4996 19.4016L14.5996 19.6016C14.5996 19.5016 14.5996 19.4016 14.5996 19.4016C14.5996 19.3016 14.6996 19.2016 14.6996 19.2016C14.6996 19.1016 14.6996 19.1016 14.6996 19.0016C14.7996 19.1016 14.8996 19.2016 14.7996 19.4016C14.7996 19.5016 14.7996 19.7016 14.6996 19.8016C14.6996 19.9016 14.5996 20.0016 14.5996 20.0016C14.4996 20.5016 14.2996 20.7016 13.9996 20.7016C13.7996 20.7016 13.6996 20.7016 13.4996 20.6016C13.4996 21.2016 12.7996 21.2016 12.7996 21.5016C12.7996 21.6016 12.8996 21.7016 12.8996 21.8016C12.9996 21.9016 13.2996 22.0016 13.3996 22.1016C13.2996 22.1016 13.0996 22.2016 12.9996 22.3016C13.1996 22.4016 13.1996 22.6016 13.2996 22.7016C13.0996 22.6016 12.9996 22.7016 12.8996 22.7016C12.7996 22.7016 12.8996 22.9016 12.7996 23.0016C12.7996 22.9016 12.6996 22.8016 12.5996 22.8016C12.4996 22.8016 12.2996 22.9016 12.2996 23.0016C12.2996 23.2016 12.1996 23.2016 12.0996 23.2016C11.9996 23.2016 11.9996 23.4016 11.9996 23.5016C11.8996 23.4016 11.8996 23.3016 11.8996 23.2016C11.7996 23.2016 11.7996 23.1016 11.7996 23.0016C11.7996 23.0016 11.6996 23.0016 11.5996 23.0016C11.4996 23.0016 11.4996 23.1016 11.4996 23.2016C11.4996 23.0016 11.4996 22.9016 11.5996 22.8016C11.5996 22.7016 11.5996 22.6016 11.6996 22.6016C11.6996 22.6016 11.6996 22.6016 11.6996 22.5016C11.5996 22.5016 11.5996 22.5016 11.4996 22.4016C11.3996 22.4016 11.2996 22.4016 11.2996 22.5016C11.2996 22.4016 11.3996 22.3016 11.4996 22.2016C11.5996 22.0016 11.7996 22.0016 11.8996 22.1016C11.9996 22.2016 12.0996 22.2016 12.1996 22.2016C12.2996 22.2016 12.3996 22.1016 12.4996 22.0016L12.5996 21.9016C12.5996 21.8016 12.6996 21.7016 12.4996 21.6016C12.3996 21.4016 12.0996 21.2016 12.0996 21.0016C12.0996 20.7016 12.1996 20.5016 12.3996 20.3016H12.2996C12.0996 20.3016 12.0996 20.2016 11.8996 20.2016C11.6996 20.2016 11.5996 20.3016 11.5996 20.5016C11.5996 20.6016 11.5996 20.7016 11.6996 20.8016C11.7996 20.9016 11.7996 21.0016 11.7996 21.1016C11.6996 21.0016 11.4996 21.0016 11.2996 21.1016C11.2996 21.2016 11.1996 21.3016 11.0996 21.4016C10.9996 21.2016 10.8996 21.1016 10.6996 21.2016C10.6996 21.2016 10.5996 21.2016 10.5996 21.3016C10.5996 21.4016 10.5996 21.5016 10.3996 21.5016C10.1996 21.5016 10.2996 21.5016 10.2996 21.5016C10.1996 21.6016 10.1996 21.6016 10.1996 21.7016C10.1996 21.6016 10.1996 21.5016 10.2996 21.4016C10.2996 21.3016 10.2996 21.2016 10.3996 21.2016C10.2996 21.3016 10.1996 21.3016 10.0996 21.2016C9.99961 21.2016 9.99961 21.2016 9.89961 21.4016C9.89961 21.3016 9.89961 21.1016 9.99961 21.1016C9.99961 21.0016 10.0996 20.9016 10.2996 20.9016C10.2996 20.9016 10.0996 20.9016 10.0996 20.7016C9.99961 20.7016 9.89961 20.7016 9.89961 20.8016C9.79961 20.6016 9.89961 20.4016 10.0996 20.4016C10.1996 20.4016 10.1996 20.3016 10.2996 20.3016C10.3996 20.3016 10.4996 20.3016 10.4996 20.4016C10.5996 20.6016 10.7996 20.7016 10.9996 20.6016C11.0996 20.6016 11.1996 20.5016 11.1996 20.4016C11.1996 20.3016 10.9996 19.9016 10.9996 19.7016C11.0996 19.5016 11.2996 19.3016 11.4996 19.2016C12.0996 19.2016 12.2996 19.5016 12.3996 19.5016C12.4996 19.5016 12.5996 19.5016 12.5996 19.4016C12.2996 19.0016 12.0996 19.1016 11.7996 18.8016C11.6996 18.7016 11.5996 18.6016 11.5996 18.4016C11.3996 18.4016 11.2996 18.7016 11.1996 18.8016C11.1996 18.7016 11.0996 18.7016 10.9996 18.7016C10.8996 18.7016 10.7996 18.9016 10.6996 19.0016C10.6996 18.8016 10.5996 18.7016 10.2996 18.7016C10.0996 18.7016 10.0996 18.7016 9.99961 18.8016C9.89961 18.9016 9.79961 19.0016 9.69961 19.0016C9.59961 19.0016 9.59961 19.1016 9.49961 19.2016C9.39961 19.0016 9.49961 18.9016 9.49961 18.9016C9.49961 18.8016 9.49961 18.7016 9.59961 18.7016C9.49961 18.7016 9.39961 18.7016 9.29961 18.6016C9.19961 18.5016 9.19961 18.6016 9.09961 18.7016C9.09961 18.6016 9.19961 18.5016 9.29961 18.4016C9.29961 18.3016 9.49961 18.3016 9.49961 18.3016C9.39961 18.3016 9.39961 18.2016 9.39961 18.1016C9.29961 18.0016 9.19961 18.1016 9.19961 18.1016C9.29961 18.0016 9.49961 17.9016 9.59961 18.0016C9.69961 18.1016 9.89961 18.0016 9.89961 18.1016C9.89961 18.2016 10.0996 18.3016 10.3996 18.3016C10.8996 18.3016 11.5996 17.9016 11.5996 17.5016C11.4996 17.5016 11.4996 17.5016 11.3996 17.5016C11.0996 17.5016 10.7996 17.8016 10.5996 17.8016C10.6996 17.6016 10.5996 17.5016 10.6996 17.4016C10.4996 17.4016 10.2996 17.5016 10.1996 17.5016C10.2996 17.4016 10.2996 17.3016 10.3996 17.2016C10.3996 17.1016 10.3996 17.0016 10.0996 17.0016C9.99961 17.0016 9.99961 17.0016 9.89961 17.0016C9.79961 17.0016 9.59961 17.0016 9.59961 16.8016C9.49961 16.8016 9.39961 16.8016 9.29961 16.9016C9.29961 16.8016 9.49961 16.7016 9.59961 16.7016C9.59961 16.6016 9.69961 16.6016 9.79961 16.6016C9.79961 16.6016 9.59961 16.6016 9.59961 16.4016C9.59961 16.2016 9.49961 16.3016 9.29961 16.4016C9.49961 16.3016 9.49961 16.3016 9.59961 16.3016C9.69961 16.3016 9.89961 16.2016 9.89961 16.3016C9.89961 16.2016 9.89961 16.1016 9.89961 16.1016C9.89961 16.0016 9.89961 16.0016 9.69961 15.9016C9.79961 15.9016 9.99961 15.9016 10.0996 16.0016C10.1996 16.0016 10.2996 16.1016 10.2996 16.2016C10.2996 16.4016 10.0996 16.5016 10.4996 16.7016C10.6996 16.8016 10.7996 16.8016 10.9996 16.9016C10.9996 17.0016 11.1996 17.0016 11.2996 17.0016C11.1996 16.9016 11.2996 16.8016 11.0996 16.7016C11.1996 16.7016 11.3996 16.7016 11.4996 16.8016C11.4996 16.6016 11.4996 16.6016 11.3996 16.5016H11.6996C12.1996 16.6016 12.1996 16.3016 12.2996 16.0016C12.0996 16.0016 11.7996 16.1016 11.5996 16.2016C11.5996 16.1016 11.5996 16.0016 11.5996 16.0016C11.5996 15.9016 11.6996 15.8016 11.6996 15.8016H11.9996C12.0996 15.8016 12.1996 15.7016 12.1996 15.5016C12.0996 15.3016 12.0996 15.3016 11.9996 15.3016L11.7996 15.4016C11.6996 15.4016 11.6996 15.5016 11.6996 15.6016C11.6996 15.7016 11.6996 15.5016 11.5996 15.4016L11.4996 15.3016C11.4996 15.2016 11.4996 15.1016 11.5996 15.1016C11.5996 15.1016 11.5996 15.1016 11.6996 15.1016L11.9996 15.0016C12.0996 15.0016 12.1996 14.9016 12.1996 14.8016C12.1996 14.7016 12.1996 14.7016 12.3996 14.7016H12.6996C12.8996 14.7016 13.1996 14.5016 13.0996 14.3016C13.1996 14.3016 13.2996 14.6016 13.2996 14.7016C13.3996 14.7016 13.5996 14.7016 13.6996 14.6016C13.6996 14.8016 13.5996 14.9016 13.4996 15.0016C13.5996 15.0016 13.7996 15.0016 13.8996 14.9016C13.7996 15.1016 13.7996 15.2016 13.5996 15.3016C13.7996 15.4016 13.9996 15.5016 13.9996 15.7016C13.7996 15.6016 13.7996 15.7016 13.5996 15.7016C13.7996 16.0016 13.9996 16.3016 14.0996 16.7016C13.9996 16.6016 13.8996 16.6016 13.7996 16.5016C13.8996 16.8016 13.6996 17.1016 13.7996 17.2016C13.6996 17.2016 13.5996 17.1016 13.5996 17.0016C13.4996 17.2016 13.4996 17.4016 13.4996 17.6016C13.3996 17.5016 13.2996 17.5016 13.2996 17.4016C13.1996 17.6016 13.0996 17.8016 13.0996 18.1016C13.0996 18.5016 13.1996 19.0016 13.4996 19.4016C13.5996 19.6016 13.6996 19.8016 13.6996 20.1016C13.7996 20.2016 13.9996 20.3016 14.1996 20.2016C14.3996 20.2016 14.5996 20.0016 14.4996 19.8016C14.4996 19.4016 13.9996 19.2016 13.9996 18.5016C13.9996 18.1016 14.2996 17.8016 14.2996 17.5016C14.2996 17.2016 14.0996 17.4016 13.8996 17.3016C14.0996 17.3016 14.2996 17.0016 14.3996 17.0016C14.4996 17.0016 14.5996 17.1016 14.5996 17.2016C14.5996 17.3016 14.5996 17.4016 14.4996 17.5016C14.6996 17.4016 14.7996 17.2016 14.7996 16.9016C14.7996 16.7016 14.4996 16.5016 14.5996 16.1016C14.5996 16.1016 14.5996 16.1016 14.5996 16.0016C14.6996 16.4016 15.2996 16.5016 15.2996 16.9016C15.2996 17.3016 14.8996 17.5016 14.7996 17.7016ZM11.1996 15.1016C11.1996 15.3016 11.1996 15.5016 11.3996 15.5016C11.5996 15.5016 11.8996 15.4016 12.0996 15.3016V15.4016C11.7996 15.6016 11.4996 15.8016 11.1996 15.8016C10.9996 15.8016 10.8996 15.7016 10.8996 15.5016C10.8996 15.3016 10.9996 15.3016 11.1996 15.1016ZM12.2996 11.6016L0.0996094 23.4016C7.49961 24.3016 14.8996 24.8016 22.3996 24.7016C22.3996 24.7016 22.3996 24.3016 22.4996 23.9016C22.4996 23.5016 22.7996 23.2016 23.1996 23.2016L23.8996 23.1016L12.2996 11.6016Z" fill="#702567"/>
<path d="M20.7 5.8C20.9 5.7 21.2 5.8 21.2 6C21.2 6.2 20.9 6.3 20.8 6.4L20.7 6.5C20.7 6.3 20.7 6.2 20.7 6.1C20.7 6 20.6 6 20.5 6C20.1 6.2 19.9 6.6 20.1 7C20.1 7 20.1 7.1 20.2 7.1C20.2 6.9 20.2 6.8 20.3 6.7C20.4 6.6 20.4 6.6 20.4 6.5C20.5 6.6 20.5 6.7 20.5 6.9C20.5 7.2 20.3 7.3 20.4 7.5C20.4 7.6 20.4 7.6 20.5 7.7C20.5 7.6 20.5 7.5 20.5 7.4C20.5 7.3 20.6 7.2 20.6 7.1C20.6 7 20.6 7 20.6 6.9C20.7 7 20.8 7.2 20.8 7.3C20.8 7.4 20.8 7.6 20.7 7.7C20.7 7.8 20.6 7.9 20.6 7.9C20.5 8.4 20.3 8.6 20 8.6C19.8 8.6 19.7 8.6 19.5 8.5C19.5 9.1 18.8 9.1 18.8 9.5C18.8 9.6 18.9 9.7 19 9.8C19.1 9.9 19.4 10 19.5 10.1C19.3 10.1 19.2 10.2 19.1 10.3C19.4 10.4 19.4 10.6 19.4 10.8C19.1 10.7 19 10.8 19 10.8C19 10.8 19 11 18.9 11.1C18.9 11 18.8 10.9 18.7 10.9C18.6 10.9 18.4 11 18.4 11.2C18.4 11.3 18.3 11.4 18.2 11.5C18.1 11.6 18.1 11.7 18.1 11.8C18 11.7 18 11.6 18 11.5C18 11.4 17.9 11.4 17.9 11.3C17.8 11.4 17.8 11.4 17.6 11.4C17.5 11.5 17.5 11.5 17.4 11.6C17.4 11.3 17.4 11.3 17.5 11.2C17.5 11.1 17.5 11 17.6 11C17.6 11 17.6 11 17.6 10.9C17.5 10.9 17.5 10.9 17.4 10.8C17.3 10.8 17.2 10.9 17.2 11C17.2 10.9 17.3 10.7 17.4 10.7C17.5 10.5 17.7 10.5 17.8 10.6C17.9 10.7 18 10.7 18.2 10.7C18.3 10.7 18.4 10.6 18.5 10.5C18.5 10.5 18.5 10.4 18.6 10.4C18.6 10.3 18.7 10.2 18.5 10C18.3 9.8 18.1 9.6 18.1 9.3C18.1 9 18.2 8.8 18.4 8.6H18C17.8 8.6 17.8 8.5 17.5 8.5C17.3 8.5 17.2 8.7 17.2 8.8C17.2 8.9 17.2 9 17.3 9.1C17.4 9.2 17.4 9.3 17.4 9.4C17.3 9.3 17.1 9.3 16.9 9.4C16.9 9.5 16.8 9.6 16.7 9.7C16.6 9.5 16.5 9.4 16.3 9.5C16.2 9.5 16.2 9.5 16.2 9.6C16.2 9.7 16.1 9.8 16 9.8H15.9C15.8 9.9 15.8 9.9 15.7 10C15.7 9.9 15.7 9.8 15.8 9.7C15.8 9.6 15.8 9.5 15.9 9.5C15.8 9.6 15.6 9.6 15.5 9.5C15.4 9.5 15.4 9.6 15.3 9.7C15.3 9.6 15.3 9.4 15.4 9.4C15.4 9.3 15.5 9.2 15.7 9.2C15.7 9.2 15.5 9.2 15.5 9C15.4 9 15.3 9 15.3 9.1C15.3 9 15.5 8.9 15.6 8.9C15.6 8.8 15.7 8.8 15.8 8.8C15.9 8.8 16 8.8 16 8.9C16.1 9.1 16.4 9.2 16.6 9.1C16.7 9.1 16.8 9 16.8 8.9C16.8 8.8 16.6 8.4 16.6 8.2C16.7 7.9 16.9 7.7 17.1 7.7C17.8 7.7 17.9 8 18.1 8C18.3 8 18.3 8 18.4 7.9C18.1 7.5 17.9 7.5 17.6 7.3C17.5 7.2 17.4 7 17.4 6.9C17.2 6.9 17 7.2 16.9 7.3C16.9 7.2 16.8 7.2 16.7 7.2C16.6 7.2 16.4 7.4 16.4 7.6C16.4 7.4 16.3 7.2 16 7.2C15.9 7.2 15.8 7.2 15.7 7.3C15.6 7.4 15.5 7.5 15.4 7.5C15.3 7.5 15.3 7.6 15.2 7.8C15.1 7.6 15.2 7.5 15.2 7.4C15.2 7.3 15.2 7.2 15.3 7.1C15.2 7.1 15.1 7.1 15 7.1C14.9 7.1 14.9 7.1 14.8 7.2C14.8 7.1 14.9 6.9 15 6.9C15.1 6.8 15.2 6.8 15.3 6.8C15.2 6.8 15.2 6.7 15.2 6.6C15.1 6.5 15 6.6 15 6.6C15.1 6.5 15.3 6.4 15.4 6.5C15.5 6.6 15.7 6.5 15.7 6.7C15.7 6.9 15.9 6.9 16.2 6.9C16.7 6.9 17.5 6.4 17.5 6.1C17.4 6.1 17.3 6.1 17.3 6.1C17 6.1 16.7 6.4 16.4 6.4C16.5 6.2 16.4 6.1 16.5 6C16.3 6 16.1 6.1 15.9 6.1C16 6 16.1 5.9 16.1 5.8C16.1 5.7 16.1 5.6 15.8 5.6C15.7 5.6 15.7 5.6 15.6 5.6C15.5 5.6 15.3 5.6 15.3 5.4C15.2 5.4 15.1 5.4 15 5.5C15 5.4 15.2 5.3 15.3 5.3C15.3 5.2 15.4 5.2 15.5 5.2C15.5 5.2 15.5 5.2 15.5 5.1C15.5 5 15.3 5.1 15.3 4.9C15.3 4.7 15.2 4.8 15 4.9C15.2 4.7 15.3 4.8 15.3 4.8C15.4 4.7 15.5 4.7 15.6 4.8C15.6 4.8 15.6 4.8 15.7 4.8C15.7 4.7 15.7 4.6 15.7 4.5C15.7 4.4 15.6 4.3 15.5 4.3C15.6 4.3 15.8 4.3 15.9 4.4C16 4.4 16.1 4.5 16.1 4.6C16.1 4.8 15.9 4.9 16.3 5.2C16.5 5.3 16.6 5.4 16.8 5.4C17 5.5 17.1 5.5 17.3 5.5C17.2 5.4 17.3 5.3 17.1 5.2C17.2 5.2 17.4 5.2 17.5 5.3C17.5 5.1 17.5 5.1 17.4 5C17.5 5 17.6 5 17.7 5C18.2 5 18.2 4.8 18.3 4.5C18 4.5 17.8 4.6 17.6 4.7C17.6 4.6 17.6 4.5 17.6 4.5C17.6 4.4 17.7 4.3 17.8 4.3H18C18.1 4.3 18.3 4.2 18.2 3.9C18.2 3.8 18.1 3.7 18 3.7L17.8 3.8C17.7 3.8 17.7 3.9 17.7 4L17.6 3.8C17.6 3.8 17.6 3.7 17.5 3.7C17.5 3.6 17.5 3.5 17.6 3.5L17.9 3.4C18 3.4 18.1 3.3 18.2 3.2C18.2 3.1 18.3 3.1 18.4 3.1H18.7C18.9 3.1 19.2 2.9 19.1 2.7C19.3 2.7 19.3 3 19.3 3.1C19.4 3.1 19.6 3.1 19.7 3C19.7 3.2 19.6 3.3 19.5 3.5C19.6 3.5 19.8 3.5 19.9 3.4C19.8 3.6 19.8 3.7 19.6 3.9C19.8 4 20 4.1 20.1 4.4C19.9 4.3 19.8 4.4 19.7 4.4C19.9 4.7 20.1 5 20.2 5.4C20.1 5.3 20 5.3 19.8 5.2C19.9 5.5 19.7 5.8 19.8 5.9C19.7 5.8 19.6 5.8 19.5 5.7C19.4 5.9 19.4 6.1 19.4 6.4C19.3 6.2 19.2 6 19.1 5.7C18.9 5.9 18.9 6.1 18.9 6.4C18.9 6.9 19.1 7.3 19.3 7.7C19.4 7.9 19.5 8.2 19.5 8.4C19.5 8.6 19.7 8.8 19.9 8.8C20.1 8.8 20.3 8.6 20.3 8.4C20.3 8 19.8 7.7 19.8 7C19.8 6.5 20.2 6.3 20.2 6C20.2 5.7 20 5.9 19.8 5.8C20 5.8 20.2 5.5 20.4 5.5C20.5 5.5 20.6 5.6 20.6 5.7C20.6 5.8 20.6 5.9 20.5 6C20.7 5.8 20.8 5.6 20.8 5.4C20.8 5.2 20.5 5 20.6 4.6C20.6 4.6 20.6 4.6 20.6 4.5C20.7 5 21.3 5.1 21.3 5.5C21.3 5.9 20.9 5.5 20.7 5.8ZM17 3C16.9 3.2 17 3.5 17.2 3.5C17.4 3.5 17.7 3.4 17.9 3.3L18 3.4C17.7 3.6 17.4 3.8 17 3.9C16.9 3.9 16.7 3.8 16.7 3.7C16.7 3.7 16.7 3.7 16.7 3.6C16.7 3.3 16.8 3.2 17 3ZM9.2 6.5C9.4 6.4 9.6 6.5 9.6 6.7C9.6 6.9 9.3 7 9.2 7.1L9.1 7.2C9.1 7.1 9.1 6.9 9.1 6.8C9.1 6.7 9 6.6 8.9 6.6C8.5 6.8 8.3 7.2 8.5 7.6C8.5 7.6 8.5 7.7 8.6 7.7C8.6 7.5 8.6 7.3 8.7 7.2C8.7 7.1 8.8 7.1 8.8 7C8.9 7.1 8.9 7.2 8.9 7.4C8.9 7.7 8.7 7.7 8.8 8L8.9 8.2C8.9 8.1 8.9 8 8.9 7.9C8.9 7.8 9 7.7 9 7.6C9 7.5 9 7.5 9 7.4C9.1 7.5 9.2 7.7 9.2 7.8C9.2 7.9 9.2 8.1 9.1 8.2C9.1 8.3 9 8.3 9 8.4C8.9 8.9 8.7 9.1 8.4 9.1C8.2 9.1 8.1 9.1 7.9 9C7.9 9.6 7.2 9.6 7.2 10C7.2 10.1 7.3 10.2 7.3 10.3C7.4 10.4 7.7 10.5 7.8 10.6C7.7 10.6 7.5 10.7 7.4 10.8C7.6 10.9 7.6 11.1 7.7 11.2C7.5 11.1 7.3 11.2 7.3 11.2C7.2 11.2 7.3 11.4 7.2 11.5C7.2 11.4 7.1 11.3 7 11.3C6.9 11.3 6.7 11.5 6.7 11.5C6.7 11.6 6.6 11.7 6.5 11.7C6.4 11.8 6.4 11.9 6.4 12C6.3 11.9 6.3 11.8 6.3 11.7C6.3 11.6 6.2 11.6 6.2 11.5C6.1 11.6 6 11.6 5.9 11.6C5.8 11.6 5.8 11.7 5.8 11.8C5.8 11.6 5.8 11.5 5.9 11.4C5.9 11.3 5.9 11.2 6 11.1C5.9 11.1 5.8 11.1 5.8 11C5.7 11 5.6 11.1 5.6 11.1C5.6 11 5.7 10.8 5.8 10.8C5.9 10.6 6.1 10.6 6.2 10.7C6.3 10.8 6.4 10.8 6.5 10.8C6.6 10.8 6.7 10.7 6.8 10.6C6.8 10.6 6.8 10.5 6.9 10.5C6.9 10.4 7 10.3 6.8 10.2C6.6 10 6.4 9.8 6.4 9.6C6.4 9.3 6.5 9.1 6.7 8.9H6.6C6.4 8.9 6.4 8.8 6.1 8.8C5.9 8.8 5.8 8.9 5.8 9.1C5.8 9.2 5.8 9.3 5.9 9.4C5.9 9.5 6 9.6 6 9.7C5.9 9.6 5.7 9.6 5.5 9.7C5.5 9.8 5.4 9.9 5.3 10C5.3 9.8 5.1 9.7 4.9 9.8C4.8 9.8 4.8 9.8 4.8 9.9C4.8 10 4.7 10.1 4.6 10.1H4.5C4.4 10.1 4.4 10.2 4.3 10.3C4.3 10.2 4.3 10.1 4.3 10C4.3 9.9 4.3 9.8 4.4 9.8C4.3 10 4.1 10 4 10C3.9 10 3.9 10.1 3.8 10.2C3.7 10 3.8 9.9 4 9.7C4 9.6 4.1 9.5 4.3 9.5C4.3 9.5 4.1 9.5 4.1 9.3C4 9.3 3.9 9.3 3.9 9.4C3.9 9.3 4 9.2 4.2 9.2C4.2 9.1 4.4 9.1 4.4 9.1C4.5 9.1 4.6 9.1 4.6 9.2C4.7 9.4 4.9 9.5 5.1 9.4C5.2 9.4 5.3 9.3 5.3 9.2C5.3 9.1 5.1 8.7 5.1 8.5C5.2 8.2 5.4 8 5.6 8C6.2 8 6.4 8.3 6.5 8.3C6.7 8.3 6.7 8.3 6.8 8.2C6.5 7.8 6.3 7.8 6 7.6C5.9 7.5 5.8 7.3 5.8 7.2C5.6 7.2 5.5 7.5 5.4 7.6C5.4 7.5 5.3 7.5 5.2 7.5C5.1 7.5 5 7.7 4.9 7.8C4.9 7.6 4.8 7.5 4.6 7.5C4.4 7.5 4.4 7.5 4.3 7.6C4.2 7.7 4.1 7.8 4 7.7C3.9 7.8 3.8 7.8 3.8 7.9C3.7 7.7 3.8 7.6 3.8 7.6C3.8 7.5 3.8 7.4 3.9 7.4C3.8 7.4 3.7 7.4 3.6 7.3C3.5 7.2 3.5 7.3 3.4 7.4C3.4 7.3 3.5 7.2 3.6 7.1C3.7 7 3.8 7 3.9 7C3.8 7 3.8 6.9 3.8 6.8C3.7 6.7 3.6 6.8 3.6 6.8C3.7 6.7 3.9 6.6 4 6.7C4.1 6.8 4.3 6.7 4.3 6.8C4.3 6.9 4.5 7 4.8 7C5.3 7 6.1 6.6 6 6.2H5.8C5.5 6.2 5.2 6.5 5 6.5C5.1 6.4 5 6.2 5.1 6.1C4.9 6.1 4.7 6.2 4.6 6.2C4.7 6.1 4.7 6 4.8 5.9C4.8 5.8 4.8 5.7 4.5 5.7C4.4 5.7 4.4 5.7 4.3 5.7C4.2 5.7 4 5.7 4 5.5C3.9 5.5 3.8 5.5 3.7 5.6C3.7 5.5 3.9 5.4 4 5.4C3.9 5.3 3.9 5.2 4 5.1C4.1 5 4.2 5 4.3 5.1C4.3 5.1 4.3 5.1 4.3 5C4.3 4.9 4.1 5 4.1 4.8C4.1 4.6 4 4.7 3.8 4.8C4 4.6 4.1 4.7 4.1 4.7C4.2 4.7 4.4 4.7 4.4 4.7C4.4 4.6 4.4 4.5 4.4 4.4C4.4 4.2 4.4 4.2 4.3 4.2C4.4 4.2 4.6 4.2 4.7 4.3C4.8 4.3 4.9 4.4 4.9 4.5C4.9 4.7 4.7 4.8 5.1 5.1C5.3 5.2 5.4 5.2 5.6 5.3C5.8 5.4 5.9 5.4 6.1 5.4C6 5.3 6.1 5.2 5.9 5.1C6 5.1 6.2 5.1 6.3 5.2C6.3 5 6.3 5 6.2 4.9H6.5C7 4.9 7 4.7 7.1 4.4C6.9 4.4 6.6 4.5 6.4 4.6C6.4 4.5 6.4 4.4 6.4 4.4C6.4 4.3 6.5 4.2 6.5 4.2H6.6C6.7 4.2 6.8 4.1 6.8 3.9C6.7 3.7 6.7 3.7 6.6 3.7L6.4 3.8C6.3 3.8 6.3 3.9 6.3 4V3.8C6.3 3.8 6.3 3.7 6.2 3.7C6.2 3.6 6.2 3.5 6.3 3.5L6.6 3.4C6.7 3.4 6.8 3.3 6.8 3.2C6.8 3.1 6.9 3.1 7 3.1H7.3C7.5 3.1 7.8 2.9 7.7 2.7C7.9 2.7 7.9 3 7.9 3.1C8 3.1 8.2 3.1 8.3 3C8.3 3.2 8.2 3.3 8.1 3.4C8.2 3.4 8.4 3.3 8.5 3.3C8.5 3.5 8.4 3.6 8.2 3.8C8.4 3.9 8.6 4 8.7 4.3C8.5 4.2 8.4 4.3 8.3 4.3C8.5 4.6 8.7 4.9 8.8 5.3C8.7 5.2 8.6 5.2 8.4 5.1C8.5 5.4 8.4 5.7 8.4 5.8C8.3 5.8 8.2 5.7 8.2 5.6C8.1 5.8 8.1 6 8.1 6.2C8 6.1 7.9 6.1 7.9 6C7.8 6.2 7.7 6.4 7.7 6.7C7.7 7.2 7.8 7.6 8.1 8C8.2 8.2 8.3 8.5 8.3 8.7C8.3 8.9 8.5 9.1 8.7 9.1C8.9 9.1 9.1 8.9 9.1 8.7C9.1 8.3 8.6 8 8.6 7.4C8.6 6.9 8.9 6.7 9 6.4C9 6.1 8.8 6.3 8.6 6.2C8.8 6.2 9 5.9 9.2 5.9C9.4 5.9 9.4 6 9.4 6.1C9.4 6.2 9.4 6.3 9.3 6.4C9.5 6.3 9.6 6.1 9.6 5.8C9.6 5.6 9.3 5.4 9.4 5C9.4 4.9 9.4 5 9.4 4.9C9.5 5.3 10.1 5.4 10.1 5.8C10.1 6.2 9.4 6.1 9.2 6.5ZM5.6 3.7C5.6 3.9 5.6 4.2 5.8 4.2C6 4.2 6.3 4.1 6.5 4C6.2 4.2 5.9 4.4 5.5 4.4C5.4 4.4 5.2 4.3 5.2 4.2C5.2 4.2 5.2 4.2 5.2 4.1C5.2 4 5.4 3.9 5.6 3.7ZM24 19.3C24 12.8 23.6 6.4 22.9 0C16.6 0 10.3 0.600002 4.1 1.9C2.6 2.2 1.4 3.4 1.2 4.9C0.400001 9.6 0 14.4 0 19.2C0 19.8 0 19.7 0 20.4C1.2 19.2 12.4 8.4 12.4 8.4L24 19.9V19.3Z" fill="#702567"/>
</svg>
